<svg width="32" height="32" viewBox="0 0 32 32" fill="none" xmlns="http://www.w3.org/2000/svg">
<path fill-rule="evenodd" clip-rule="evenodd" d="M26.6666 0H5.33329V2.66667H26.6666V0ZM26.6666 32V29.3333H5.33329V32H26.6666ZM5.33329 5.33333H26.6666C28.1333 5.33333 29.3333 6.53333 29.3333 8V24C29.3333 25.4667 28.1333 26.6667 26.6666 26.6667H5.33329C3.86663 26.6667 2.66663 25.4667 2.66663 24V8C2.66663 6.53333 3.86663 5.33333 5.33329 5.33333ZM16 9C17.6533 9 19 10.3467 19 12C19 13.6533 17.6533 15 16 15C14.3466 15 13 13.6533 13 12C13 10.3467 14.3466 9 16 9ZM9.33329 20.6667V22.6667H22.6666V20.6667C22.6666 18.44 18.2266 17.3333 16 17.3333C13.7733 17.3333 9.33329 18.44 9.33329 20.6667Z" fill="white"/>
</svg>
